{
  "accessors": [
    {
      "bufferView": 1,
      "componentType": 5126,
      "count": 430,
      "max": [
        53.797882080078125,
        42.46099853515625,
        36.00199890136719
      ],
      "min": [
        0,
        0,
        0
      ],
      "type": "VEC3",
      "byteOffset": 0
    },
    {
      "bufferView": 1,
      "byteOffset": 5160,
      "componentType": 5126,
      "count": 430,
      "max": [
        0.980207085609436,
        0.9861164689064026,
        1
      ],
      "min": [
        -0.9818716049194336,
        -1,
        -0.999992847442627
      ],
      "type": "VEC3"
    },
    {
      "bufferView": 2,
      "componentType": 5126,
      "count": 430,
      "max": [
        0.7098039388656616,
        0.9372549057006836,
        0.9372549057006836,
        1
      ],
      "min": [
        0.7098039388656616,
        0.9372549057006836,
        0.9372549057006836,
        1
      ],
      "type": "VEC4",
      "byteOffset": 0
    },
    {
      "bufferView": 0,
      "componentType": 5125,
      "count": 1152,
      "type": "SCALAR",
      "byteOffset": 0
    }
  ],
  "asset": {
    "extras": {
      "author": "mathgrrl (https://sketchfab.com/mathgrrl)",
      "license": "CC-BY-4.0 (http://creativecommons.org/licenses/by/4.0/)",
      "source": "https://sketchfab.com/3d-models/jmu-cube-c7b857687e874cbc992852495dd4086e",
      "title": "JMU Cube"
    },
    "generator": "Sketchfab-12.68.0",
    "version": "2.0"
  },
  "bufferViews": [
    {
      "buffer": 0,
      "byteLength": 4608,
      "name": "floatBufferViews",
      "target": 34963,
      "byteOffset": 0
    },
    {
      "buffer": 0,
      "byteLength": 10320,
      "byteOffset": 4608,
      "byteStride": 12,
      "name": "floatBufferViews",
      "target": 34962
    },
    {
      "buffer": 0,
      "byteLength": 6880,
      "byteOffset": 14928,
      "byteStride": 16,
      "name": "floatBufferViews",
      "target": 34962
    }
  ],
  "buffers": [
    {
      "name": "cube1",
      "byteLength": 21808,
      "uri": "data:application/octet-stream;base64,"
    }
  ],
  "extensionsRequired": [],
  "extensionsUsed": [],
  "materials": [
    {
      "doubleSided": true,
      "pbrMetallicRoughness": {
        "baseColorFactor": [
          0.1184452567735892,
          0.0017184371883627824,
          0.472307320362618,
          1
        ],
        "metallicFactor": 0.0,
        "roughnessFactor": 0.5261051829268293
      },
      "name": "Scene_-_Root",
      "emissiveFactor": [
        0,
        0,
        0
      ],
      "alphaMode": "OPAQUE"
    }
  ],
  "meshes": [
    {
      "name": "Object_0",
      "primitives": [
        {
          "attributes": {
            "COLOR_0": 2,
            "NORMAL": 1,
            "POSITION": 0
          },
          "indices": 3,
          "material": 0,
          "mode": 4
        }
      ]
    }
  ],
  "nodes": [
    {
      "children": [
        1
      ],
      "matrix": [
        1,
        0,
        0,
        0,
        0,
        2.220446049250313e-16,
        -1,
        0,
        0,
        1,
        2.220446049250313e-16,
        0,
        0,
        0,
        0,
        1
      ],
      "name": "Sketchfab_model"
    },
    {
      "children": [
        2
      ],
      "matrix": [
        1,
        0,
        0,
        0,
        0,
        1,
        0,
        0,
        0,
        0,
        1,
        0,
        -26.8987979888916,
        -21.231000900268555,
        -0.0010000000474974513,
        1
      ],
      "name": "5e9e86d5f77841aba22ad95c236bc234.stl.cleaner.gles"
    },
    {
      "mesh": 0,
      "name": "Object_2"
    }
  ],
  "scene": 0,
  "scenes": [
    {
      "name": "Sketchfab_Scene",
      "nodes": [
        0
      ]
    }
  ]
}
